<svg xmlns="http://www.w3.org/2000/svg" width="101" height="100" viewBox="0 0 101 100" fill="none">
  <path d="M75.305 50.6742L35.0054 70.8578V58.863C35.0012 51.5877 37.012 44.4547 40.8126 38.2624C44.6132 32.0702 50.0537 27.063 56.5253 23.8012L101 1.46954V8.76447C101.017 17.4599 98.6222 25.9881 94.0833 33.3913C89.5444 40.7945 83.0415 46.7795 75.305 50.6742Z" fill="#EE7D00"/>
  <path d="M35.0057 20.817C40.2137 20.8138 45.3252 22.2288 49.797 24.9114C51.575 23.6308 53.4506 22.4932 55.4065 21.509L69.7531 14.3006C60.4401 5.10556 47.8972 -0.0322293 34.8412 0.000152141C21.7853 0.0325335 9.26772 5.23247 0 14.4736L18.0767 26.3386C22.9987 22.7495 28.9243 20.8167 35.0057 20.817Z" fill="#115D36"/>
  <path d="M76.4817 53.0242L62.1351 60.2326C60.5802 64.429 58.0824 68.2081 54.8362 71.2755C51.5899 74.343 47.6829 76.6161 43.4193 77.9177C39.1557 79.2194 34.6507 79.5145 30.2551 78.7801C25.8594 78.0457 21.6918 76.3016 18.0767 73.6836L0 85.5342C6.97434 92.4755 15.8371 97.1872 25.4715 99.0757C35.106 100.964 45.0812 99.9449 54.1402 96.1463C63.1992 92.3477 70.9368 85.9397 76.378 77.7298C81.8192 69.5198 84.7206 59.8752 84.7166 50.0111C84.7166 49.2902 84.7166 48.5694 84.7166 47.863C82.146 49.8496 79.3879 51.5782 76.4817 53.0242Z" fill="#115D36"/>
  <g style="mix-blend-mode:overlay" opacity="0.5">
    <path d="M35.0057 20.817C40.2137 20.8138 45.3252 22.2288 49.797 24.9114C51.575 23.6308 53.4506 22.4932 55.4065 21.509L69.7531 14.3006C60.4401 5.10556 47.8972 -0.0322293 34.8412 0.000152141C21.7853 0.0325335 9.26772 5.23247 0 14.4736L18.0767 26.3386C22.9987 22.7495 28.9243 20.8167 35.0057 20.817Z" fill="#115D36"/>
  </g>
  <g style="mix-blend-mode:overlay" opacity="0.5">
    <path d="M76.4817 53.0242L62.1351 60.2326C60.5802 64.429 58.0824 68.2081 54.8362 71.2755C51.5899 74.343 47.6829 76.6161 43.4193 77.9177C39.1557 79.2194 34.6507 79.5145 30.2551 78.7801C25.8594 78.0457 21.6918 76.3016 18.0767 73.6836L0 85.5342C6.97434 92.4755 15.8371 97.1872 25.4715 99.0757C35.106 100.964 45.0812 99.9449 54.1402 96.1463C63.1992 92.3477 70.9368 85.9397 76.378 77.7298C81.8192 69.5198 84.7206 59.8752 84.7166 50.0111C84.7166 49.2902 84.7166 48.5694 84.7166 47.863C82.146 49.8496 79.3879 51.5782 76.4817 53.0242Z" fill="#115D36"/>
  </g>
  <path style="mix-blend-mode:overlay" opacity="0.5" d="M75.305 50.6742L35.0054 70.8578V58.863C35.0012 51.5877 37.012 44.4547 40.8126 38.2624C44.6132 32.0702 50.0537 27.063 56.5253 23.8012L101 1.46954V8.76447C101.017 17.4599 98.6222 25.9881 94.0833 33.3913C89.5444 40.7945 83.0415 46.7795 75.305 50.6742Z" fill="url(#paint0_linear_534_4493)"/>
  <path style="mix-blend-mode:multiply" opacity="0.3" d="M76.4818 53.0242L62.1352 60.2326C60.5808 64.4259 58.0839 68.2019 54.8391 71.2663C51.5942 74.3308 47.689 76.601 43.4278 77.9C39.1666 79.199 34.6645 79.4917 30.2723 78.7553C25.88 78.019 21.7163 76.2734 18.1055 73.6547L0.0288086 85.5053C7.00315 92.4467 15.8659 97.1584 25.5004 99.0468C35.1348 100.935 45.11 99.916 54.169 96.1174C63.228 92.3188 70.9656 85.9108 76.4068 77.7009C81.848 69.4909 84.7494 59.8463 84.7455 49.9822C84.7455 49.2614 84.7455 48.5405 84.7455 47.8341C82.1683 49.8342 79.4002 51.5727 76.4818 53.0242Z" fill="url(#paint1_linear_534_4493)"/>
  <defs>
    <linearGradient id="paint0_linear_534_4493" x1="10.8457" y1="61.3427" x2="108.871" y2="18.6888" gradientUnits="userSpaceOnUse">
      <stop offset="0.12" stop-color="white"/>
      <stop offset="0.14" stop-color="white" stop-opacity="0.9"/>
      <stop offset="0.24" stop-color="white" stop-opacity="0.59"/>
      <stop offset="0.33" stop-color="white" stop-opacity="0.34"/>
      <stop offset="0.41" stop-color="white" stop-opacity="0.15"/>
      <stop offset="0.46" stop-color="white" stop-opacity="0.04"/>
      <stop offset="0.5" stop-color="white" stop-opacity="0"/>
      <stop offset="0.83" stop-color="white"/>
      <stop offset="0.84" stop-color="white" stop-opacity="0.9"/>
      <stop offset="0.88" stop-color="white" stop-opacity="0.59"/>
      <stop offset="0.93" stop-color="white" stop-opacity="0.34"/>
      <stop offset="0.96" stop-color="white" stop-opacity="0.15"/>
      <stop offset="0.99" stop-color="white" stop-opacity="0.04"/>
      <stop offset="1" stop-color="white" stop-opacity="0"/>
    </linearGradient>
    <linearGradient id="paint1_linear_534_4493" x1="41.4761" y1="49.5785" x2="42.9103" y2="76.9122" gradientUnits="userSpaceOnUse">
      <stop offset="0.12" stop-color="#12110B"/>
      <stop offset="0.15" stop-color="#1F1E19"/>
      <stop offset="0.39" stop-color="#6E6D69"/>
      <stop offset="0.61" stop-color="#ACACAA"/>
      <stop offset="0.79" stop-color="#D9D9D8"/>
      <stop offset="0.92" stop-color="#F5F5F4"/>
      <stop offset="1" stop-color="white"/>
    </linearGradient>
  </defs>
</svg>