<svg xmlns="http://www.w3.org/2000/svg" width="171" height="38" viewBox="0 0 171 38" fill="none">
  <g clip-path="url(#clip0_44_4954)">
    <path d="M29.0454 19.263L13.4929 26.9331V22.3749C13.4913 19.6101 14.2673 16.8995 15.734 14.5463C17.2008 12.1931 19.3004 10.2903 21.7979 9.05078L38.9616 0.564331V3.33653C38.9684 6.64096 38.044 9.88183 36.2924 12.6952C34.5407 15.5085 32.0311 17.7829 29.0454 19.263Z" fill="#EE7D00"/>
    <path d="M13.493 7.91669C15.5028 7.91549 17.4755 8.45318 19.2013 9.47263C19.8874 8.986 20.6113 8.55367 21.3661 8.17967L26.9028 5.44033C23.3087 1.94606 18.4681 -0.00638832 13.4295 0.00591719C8.39092 0.0182227 3.56011 1.99429 -0.01651 5.50608L6.95969 10.015C8.8592 8.65107 11.146 7.91659 13.493 7.91669Z" fill="#115D36"/>
    <path d="M29.4993 20.156L23.9626 22.8953C23.3626 24.49 22.3986 25.9261 21.1458 27.0918C19.893 28.2575 18.3852 29.1213 16.7398 29.616C15.0944 30.1106 13.3558 30.2228 11.6594 29.9437C9.96305 29.6646 8.35467 29.0018 6.95954 28.0069L-0.0166626 32.5104C2.67489 35.1482 6.09521 36.9387 9.81337 37.6564C13.5315 38.374 17.3812 37.9867 20.8772 36.5432C24.3733 35.0996 27.3594 32.6645 29.4593 29.5446C31.5592 26.4246 32.6789 22.7595 32.6774 19.011C32.6774 18.737 32.6774 18.4631 32.6774 18.1946C31.6853 18.9496 30.6209 19.6065 29.4993 20.156Z" fill="#115D36"/>
    <g style="mix-blend-mode:overlay" opacity="0.5">
      <path d="M13.493 7.91669C15.5028 7.91549 17.4755 8.45318 19.2013 9.47263C19.8874 8.986 20.6113 8.55367 21.3661 8.17967L26.9028 5.44033C23.3087 1.94606 18.4681 -0.00638832 13.4295 0.00591719C8.39092 0.0182227 3.56011 1.99429 -0.01651 5.50608L6.95969 10.015C8.8592 8.65107 11.146 7.91659 13.493 7.91669Z" fill="#115D36"/>
    </g>
    <g style="mix-blend-mode:overlay" opacity="0.5">
      <path d="M29.4993 20.156L23.9626 22.8953C23.3626 24.49 22.3986 25.9261 21.1458 27.0918C19.893 28.2575 18.3852 29.1213 16.7398 29.616C15.0944 30.1106 13.3558 30.2228 11.6594 29.9437C9.96305 29.6646 8.35467 29.0018 6.95954 28.0069L-0.0166626 32.5104C2.67489 35.1482 6.09521 36.9387 9.81337 37.6564C13.5315 38.374 17.3812 37.9867 20.8772 36.5432C24.3733 35.0996 27.3594 32.6645 29.4593 29.5446C31.5592 26.4246 32.6789 22.7595 32.6774 19.011C32.6774 18.737 32.6774 18.4631 32.6774 18.1946C31.6853 18.9496 30.6209 19.6065 29.4993 20.156Z" fill="#115D36"/>
    </g>
    <path style="mix-blend-mode:overlay" opacity="0.5" d="M29.0454 19.263L13.4929 26.9331V22.3749C13.4913 19.6101 14.2673 16.8995 15.734 14.5463C17.2008 12.1931 19.3004 10.2903 21.7979 9.05078L38.9616 0.564331V3.33653C38.9684 6.64096 38.044 9.88183 36.2924 12.6952C34.5407 15.5085 32.0311 17.7829 29.0454 19.263Z" fill="url(#paint0_linear_44_4954)"/>
    <path style="mix-blend-mode:multiply" opacity="0.3" d="M29.4993 20.156L23.9627 22.8953C23.3628 24.4888 22.3992 25.9238 21.1469 27.0883C19.8946 28.2529 18.3876 29.1156 16.7431 29.6092C15.0986 30.1029 13.3611 30.2141 11.666 29.9343C9.97097 29.6544 8.36409 28.9911 6.97062 27.9959L-0.00558472 32.4994C2.68597 35.1372 6.1063 36.9278 9.82445 37.6454C13.5426 38.3631 17.3922 37.9757 20.8883 36.5322C24.3844 35.0886 27.3705 32.6535 29.4704 29.5336C31.5702 26.4136 32.69 22.7485 32.6884 19C32.6884 18.726 32.6884 18.4521 32.6884 18.1837C31.6938 18.9437 30.6256 19.6044 29.4993 20.156Z" fill="url(#paint1_linear_44_4954)"/>
    <path d="M54.597 13.0721C53.7149 13.0431 52.8383 13.22 52.0381 13.5883C51.2379 13.9566 50.5364 14.5061 49.9905 15.1923L52.1388 17.0112C52.4437 16.6519 52.8252 16.3639 53.256 16.1678C53.6868 15.9717 54.1561 15.8725 54.6303 15.8772C55.217 15.8825 55.7868 16.0722 56.2575 16.4188C56.7282 16.7654 57.0754 17.2511 57.2491 17.8057H53.5285V20.03H57.2823C57.1372 20.6176 56.797 21.1401 56.3161 21.5136C55.8352 21.8871 55.2416 22.0901 54.6303 22.09C54.1401 22.0878 53.6567 21.9758 53.2166 21.7623C52.7764 21.5488 52.3909 21.2394 52.0889 20.8573L49.7746 22.5009C50.3293 23.2803 51.0736 23.9088 51.9388 24.3283C52.8039 24.7477 53.762 24.9445 54.7244 24.9005C55.5224 24.9146 56.3151 24.7702 57.0557 24.4758C57.7963 24.1814 58.4698 23.743 59.0361 23.1866C59.6025 22.6302 60.0504 21.967 60.3532 21.2363C60.656 20.5055 60.8076 19.7222 60.7991 18.9324C60.7906 18.1427 60.6221 17.3627 60.3036 16.6386C59.9851 15.9144 59.523 15.2608 58.9448 14.7165C58.3665 14.1721 57.6838 13.7481 56.937 13.4694C56.1902 13.1907 55.3945 13.0631 54.597 13.094V13.0721Z" fill="#115D36"/>
    <path d="M63.4669 17.5646C63.4669 22.0736 62.8634 22.2982 62.3042 22.2982C62.1333 22.2958 61.9629 22.2793 61.7948 22.2489L61.6675 24.6376C62.1218 24.7099 62.5805 24.752 63.0406 24.7636C64.9286 24.7636 66.3626 23.8596 66.3626 18.5508V18.3262H68.0236V24.6485H71.1407V15.8827H63.4669V17.5646Z" fill="#115D36"/>
    <path d="M77.5188 15.68C76.9153 15.6733 76.3168 15.7888 75.76 16.0193C75.2032 16.2498 74.6999 16.5905 74.2809 17.0204C73.862 17.4503 73.5363 17.9605 73.3238 18.5195C73.1113 19.0784 73.0165 19.6745 73.0452 20.2711C73.0452 23.0104 75.0107 24.8622 77.8012 24.8622C78.5446 24.8943 79.285 24.7487 79.9596 24.4379C80.6342 24.127 81.2232 23.6599 81.6768 23.0762L79.9605 21.6681C79.712 21.9436 79.4087 22.1651 79.0694 22.3188C78.7302 22.4725 78.3625 22.555 77.9894 22.5612C77.5474 22.5899 77.1098 22.4592 76.7576 22.1933C76.4054 21.9274 76.1624 21.5443 76.0737 21.1148H82.009C82.009 20.9066 82.009 20.6765 82.009 20.4847C81.998 17.9043 80.5861 15.68 77.5188 15.68ZM75.9962 19.5424C76.1623 18.5837 76.716 17.9536 77.5354 17.9536C78.3548 17.9536 78.9639 18.5672 79.0801 19.5424H75.9962Z" fill="#115D36"/>
    <path d="M83.144 15.8771V18.359H85.7352V24.6485H88.8468V18.359H91.438V15.8771H83.144Z" fill="#115D36"/>
    <path d="M98.1375 13.2967H101.321V17.9042L105.269 13.2967H109.039L104.698 18.1782L109.189 24.6485H105.368L102.484 20.4299L101.321 21.7119V24.6485H98.1375V13.2967Z" fill="#EE7D00"/>
    <path d="M109.864 22.1064C109.864 20.2875 111.254 19.367 113.336 19.367C114.06 19.3678 114.78 19.4844 115.467 19.7122V19.5643C115.467 18.6548 114.914 18.1343 113.695 18.1343C112.857 18.1339 112.027 18.2997 111.254 18.6219L110.617 16.4305C111.753 15.9609 112.974 15.7296 114.205 15.7511C115.794 15.7511 116.879 16.1237 117.582 16.8469C118.285 17.57 118.534 18.4028 118.534 19.6355V24.6485H115.451V23.739C115.124 24.1006 114.722 24.3863 114.271 24.5758C113.82 24.7652 113.332 24.8536 112.843 24.8348C111.154 24.8457 109.864 23.8924 109.864 22.1064ZM115.5 21.4709V21.0654C115.114 20.9163 114.703 20.8401 114.288 20.8408C113.385 20.8408 112.859 21.2791 112.859 21.9365C112.86 22.0743 112.89 22.2104 112.948 22.3358C113.005 22.4611 113.089 22.5729 113.194 22.6636C113.299 22.7543 113.422 22.8219 113.555 22.8618C113.688 22.9018 113.829 22.9132 113.967 22.8953C114.164 22.9106 114.363 22.8849 114.549 22.82C114.736 22.755 114.907 22.6523 115.051 22.5182C115.196 22.3841 115.31 22.2217 115.388 22.0414C115.465 21.861 115.503 21.6667 115.5 21.4709Z" fill="#EE7D00"/>
    <path d="M120.827 15.8827H129.475V24.6485H126.358V18.359H123.938V24.6485H120.821L120.827 15.8827Z" fill="#EE7D00"/>
    <path d="M131.856 15.8827H134.873V20.2656L137.824 15.8827H140.692V24.6485H137.675V20.2656L134.724 24.6485H131.856V15.8827Z" fill="#EE7D00"/>
    <path d="M144.839 18.359H142.248V15.8827H150.553V18.3645H147.962V24.6485H144.845L144.839 18.359Z" fill="#EE7D00"/>
    <path d="M151.4 22.1064C151.4 20.2875 152.795 19.3671 154.877 19.3671C155.602 19.3679 156.322 19.4844 157.009 19.7123V19.5643C157.009 18.6549 156.455 18.1344 155.237 18.1344C154.398 18.1335 153.568 18.2993 152.795 18.622L152.175 16.4305C153.313 15.961 154.536 15.7297 155.769 15.7512C157.358 15.7512 158.437 16.1237 159.146 16.8469C159.855 17.5701 160.093 18.4029 160.093 19.6356V24.6485H156.992V23.7391C156.664 24.0986 156.261 24.3829 155.811 24.5721C155.36 24.7614 154.873 24.851 154.384 24.8348C152.696 24.8458 151.4 23.8925 151.4 22.1064ZM157.042 21.4709V21.0655C156.655 20.9176 156.244 20.8414 155.829 20.8409C154.927 20.8409 154.401 21.2792 154.401 21.9366C154.401 22.0746 154.43 22.2112 154.487 22.337C154.545 22.4628 154.629 22.5749 154.734 22.6658C154.839 22.7567 154.962 22.8242 155.096 22.8638C155.229 22.9034 155.37 22.9142 155.508 22.8954C155.706 22.9098 155.904 22.8835 156.09 22.8183C156.276 22.753 156.447 22.6502 156.591 22.5163C156.735 22.3824 156.85 22.2204 156.927 22.0404C157.005 21.8605 157.044 21.6665 157.042 21.4709Z" fill="#EE7D00"/>
    <path d="M161.538 24.6485L161.671 22.2599C161.839 22.2903 162.009 22.3068 162.18 22.3092C162.734 22.3092 163.343 22.0845 163.343 17.5756V15.8827H171V24.6485H167.883V18.3262H166.222V18.5508C166.222 23.8596 164.782 24.7636 162.9 24.7636C162.444 24.7547 161.989 24.7162 161.538 24.6485Z" fill="#EE7D00"/>
    <path d="M50.2618 30.3792H50.9927L52.1886 32.2146L53.3845 30.3792H54.1154V34.2581H53.4288V31.4749L52.1886 33.3048L50.9595 31.4859V34.2581H50.284L50.2618 30.3792Z" fill="#115D36"/>
    <path d="M55.9923 30.3792H56.6734V33.2117L58.6555 30.3792H59.2977V34.2581H58.6057V31.4311L56.6291 34.2581H55.9757L55.9923 30.3792Z" fill="#115D36"/>
    <path d="M61.1746 30.3792H61.8667V32.3186L63.7326 30.3682H64.5797L62.9464 32.0118L64.6516 34.2033H63.8156L62.4813 32.5104L61.8722 33.135V34.2307H61.1802L61.1746 30.3792Z" fill="#115D36"/>
    <path d="M66.141 30.3792H67.6857C67.8733 30.3549 68.064 30.3707 68.2449 30.4255C68.4258 30.4804 68.5928 30.5729 68.7344 30.697C68.8761 30.8211 68.9893 30.9739 69.0662 31.1449C69.1432 31.316 69.1822 31.5013 69.1806 31.6886C69.1806 32.5597 68.4719 33.0144 67.6082 33.0144H66.833V34.2581H66.141V30.3792ZM67.6303 32.3953C68.1563 32.3953 68.4774 32.1104 68.4774 31.694C68.4774 31.2777 68.1452 30.9983 67.6303 30.9983H66.833V32.3953H67.6303Z" fill="#115D36"/>
    <path d="M70.6202 32.3186C70.6148 31.915 70.7308 31.5189 70.9537 31.1809C71.1765 30.8428 71.496 30.578 71.8715 30.4203C72.2469 30.2626 72.6614 30.219 73.0619 30.2952C73.4625 30.3714 73.8311 30.5639 74.1207 30.8481C74.4103 31.1324 74.6078 31.4955 74.6881 31.8913C74.7684 32.287 74.7278 32.6974 74.5714 33.0702C74.4151 33.443 74.1501 33.7614 73.8103 33.9846C73.4705 34.2079 73.0712 34.3259 72.6633 34.3238C72.3952 34.3282 72.1289 34.2795 71.8801 34.1805C71.6313 34.0814 71.405 33.9342 71.2146 33.7473C71.0243 33.5605 70.8736 33.3378 70.7715 33.0924C70.6694 32.847 70.618 32.584 70.6202 32.3186ZM73.9976 32.3186C73.9846 32.0615 73.8956 31.8138 73.7417 31.6063C73.5877 31.3988 73.3756 31.2406 73.1317 31.1512C72.8877 31.0619 72.6226 31.0454 72.3692 31.1037C72.1158 31.1621 71.8853 31.2928 71.7063 31.4795C71.5273 31.6663 71.4076 31.901 71.3621 32.1544C71.3167 32.4079 71.3474 32.669 71.4504 32.9053C71.5535 33.1417 71.7244 33.3429 71.942 33.484C72.1596 33.6252 72.4142 33.7 72.6744 33.6992C72.8541 33.6987 73.0319 33.6621 73.197 33.5916C73.362 33.5212 73.5109 33.4183 73.6346 33.2892C73.7583 33.1601 73.8543 33.0076 73.9167 32.8407C73.9791 32.6739 74.0066 32.4963 73.9976 32.3186Z" fill="#115D36"/>
    <path d="M78.1778 33.9896C76.9431 33.9896 76.2178 33.2774 76.2178 32.2858C76.2178 31.2941 76.9486 30.6038 78.1778 30.6038V30.2368H78.8588V30.6038C80.0879 30.6038 80.8243 31.2996 80.8243 32.2913C80.8243 33.2829 80.099 33.9896 78.8588 33.9896V34.4115H78.1778V33.9896ZM78.1778 31.2174C77.4026 31.2174 76.9209 31.6229 76.9209 32.3132C76.9209 33.0035 77.4026 33.4089 78.1778 33.4089V31.2174ZM80.1156 32.3132C80.1156 31.6393 79.6394 31.2174 78.8588 31.2174V33.3815C79.645 33.3815 80.1156 32.987 80.1156 32.3186V32.3132Z" fill="#115D36"/>
    <path d="M82.4465 30.3792H83.1275V33.2117L85.1097 30.3792H85.7353V34.2581H85.0543V31.4311L83.0777 34.2581H82.4244L82.4465 30.3792Z" fill="#115D36"/>
    <path d="M87.6289 30.3792H88.321V31.9899H90.1924V30.3792H90.8844V34.2581H90.1924V32.6145H88.321V34.2581H87.6289V30.3792Z" fill="#115D36"/>
    <path d="M94.14 30.3518H94.7767L96.5041 34.2581H95.7733L95.3747 33.3212H93.5199L93.1212 34.2581H92.4125L94.14 30.3518ZM95.1255 32.7186L94.4445 31.1681L93.7746 32.7186H95.1255Z" fill="#115D36"/>
    <path d="M98.0377 30.3792H98.7243V31.9899H100.596V30.3792H101.288V34.2581H100.596V32.6145H98.7243V34.2581H98.0377V30.3792Z" fill="#115D36"/>
    <path d="M102.96 32.3186C102.955 32.0539 103.003 31.7908 103.103 31.5452C103.203 31.2995 103.352 31.0764 103.542 30.8891C103.731 30.7019 103.956 30.5544 104.205 30.4555C104.453 30.3565 104.719 30.3082 104.986 30.3134C105.27 30.3022 105.554 30.35 105.818 30.4538C106.082 30.5576 106.321 30.7151 106.52 30.9161L106.077 31.4201C105.935 31.2699 105.764 31.1498 105.573 31.0669C105.383 30.9841 105.178 30.9402 104.97 30.938C104.639 30.9888 104.338 31.1548 104.121 31.4059C103.904 31.6571 103.784 31.9769 103.784 32.3077C103.784 32.6384 103.904 32.9582 104.121 33.2094C104.338 33.4606 104.639 33.6266 104.97 33.6773C105.179 33.6737 105.386 33.627 105.577 33.5402C105.767 33.4535 105.938 33.3285 106.077 33.1733L106.52 33.6171C106.323 33.8407 106.078 34.0182 105.803 34.1366C105.529 34.2551 105.231 34.3115 104.931 34.3019C104.669 34.3019 104.41 34.2504 104.169 34.1504C103.928 34.0503 103.709 33.9037 103.525 33.7191C103.342 33.5345 103.197 33.3156 103.1 33.0751C103.003 32.8347 102.956 32.5775 102.96 32.3186Z" fill="#115D36"/>
    <path d="M107.821 32.3186C107.816 31.915 107.932 31.5189 108.155 31.1809C108.377 30.8428 108.697 30.578 109.072 30.4203C109.448 30.2626 109.862 30.219 110.263 30.2952C110.663 30.3714 111.032 30.5639 111.322 30.8481C111.611 31.1324 111.809 31.4955 111.889 31.8913C111.969 32.287 111.929 32.6974 111.772 33.0702C111.616 33.443 111.351 33.7614 111.011 33.9846C110.671 34.2079 110.272 34.3259 109.864 34.3238C109.596 34.329 109.329 34.2807 109.08 34.182C108.831 34.0833 108.604 33.936 108.414 33.749C108.223 33.562 108.073 33.339 107.971 33.0933C107.869 32.8476 107.818 32.5842 107.821 32.3186ZM111.198 32.3186C111.206 32.1404 111.177 31.9625 111.113 31.7957C111.05 31.6288 110.953 31.4764 110.828 31.3475C110.703 31.2186 110.554 31.1159 110.388 31.0455C110.223 30.9751 110.044 30.9386 109.864 30.938C109.684 30.9385 109.507 30.9751 109.342 31.0456C109.176 31.1161 109.028 31.219 108.904 31.348C108.78 31.4771 108.684 31.6297 108.622 31.7965C108.559 31.9633 108.532 32.141 108.541 32.3186C108.533 32.4968 108.562 32.6747 108.626 32.8416C108.69 33.0084 108.787 33.1609 108.911 33.2898C109.036 33.4187 109.185 33.5214 109.351 33.5917C109.517 33.6621 109.695 33.6987 109.875 33.6992C110.055 33.6995 110.234 33.6634 110.4 33.5932C110.565 33.5231 110.715 33.4203 110.839 33.2912C110.963 33.162 111.06 33.0092 111.123 32.842C111.185 32.6748 111.213 32.4967 111.204 32.3186H111.198Z" fill="#115D36"/>
    <path d="M113.601 30.3792H115.362C115.736 30.3557 116.104 30.4798 116.386 30.7243C116.473 30.8092 116.541 30.911 116.586 31.0233C116.63 31.1355 116.651 31.2557 116.647 31.3763C116.651 31.5586 116.601 31.7382 116.503 31.8924C116.404 32.0465 116.261 32.1681 116.093 32.2419C116.316 32.2844 116.516 32.4034 116.659 32.5778C116.802 32.7521 116.878 32.9708 116.874 33.1952C116.874 33.891 116.32 34.258 115.423 34.258H113.607L113.601 30.3792ZM115.218 32.0228C115.661 32.0228 115.96 31.8529 115.96 31.4749C115.96 31.0969 115.711 30.9818 115.268 30.9818H114.277V32.0118L115.218 32.0228ZM115.423 33.6664C115.894 33.6664 116.176 33.4856 116.176 33.1185C116.176 32.7514 115.916 32.598 115.373 32.598H114.266V33.6609L115.423 33.6664Z" fill="#115D36"/>
    <path d="M119.852 30.3518H120.489L122.216 34.2581H121.486L121.087 33.3212H119.232L118.828 34.2581H118.125L119.852 30.3518ZM120.838 32.7186L120.157 31.1681L119.509 32.7186H120.838Z" fill="#115D36"/>
    <path d="M124.664 32.8008C124.391 32.744 124.147 32.5935 123.976 32.3758C123.805 32.1582 123.717 31.8875 123.728 31.6119C123.728 30.8613 124.282 30.3792 125.19 30.3792H126.934V34.2581H126.253V32.9158H125.383L124.409 34.2581H123.595L124.664 32.8008ZM126.253 32.3241V30.9928H125.245C124.73 30.9928 124.426 31.2394 124.426 31.6612C124.426 32.0831 124.741 32.3241 125.234 32.3241H126.253Z" fill="#115D36"/>
    <path d="M131.308 30.3792H131.994V32.3186L133.86 30.3682H134.707L133.074 32.0118L134.779 34.2033H133.943L132.603 32.4556L131.994 33.0802V34.1759H131.308V30.3792Z" fill="#115D36"/>
    <path d="M135.798 32.3186C135.792 31.915 135.908 31.5189 136.131 31.1809C136.354 30.8428 136.674 30.578 137.049 30.4203C137.425 30.2626 137.839 30.219 138.24 30.2952C138.64 30.3714 139.009 30.5639 139.298 30.8481C139.588 31.1324 139.785 31.4955 139.866 31.8913C139.946 32.287 139.905 32.6974 139.749 33.0702C139.593 33.443 139.328 33.7614 138.988 33.9846C138.648 34.2079 138.249 34.3259 137.841 34.3238C137.572 34.3313 137.304 34.2846 137.054 34.1867C136.804 34.0888 136.576 33.9417 136.385 33.7542C136.194 33.5667 136.044 33.3428 135.943 33.096C135.842 32.8493 135.792 32.5848 135.798 32.3186ZM139.175 32.3186C139.183 32.1404 139.154 31.9625 139.09 31.7957C139.026 31.6288 138.929 31.4764 138.805 31.3475C138.68 31.2186 138.531 31.1159 138.365 31.0455C138.199 30.9751 138.021 30.9386 137.841 30.938C137.661 30.9385 137.483 30.9751 137.318 31.0456C137.153 31.1161 137.004 31.219 136.881 31.348C136.757 31.4771 136.661 31.6297 136.599 31.7965C136.536 31.9633 136.509 32.141 136.518 32.3186C136.51 32.4968 136.539 32.6747 136.603 32.8416C136.666 33.0084 136.763 33.1609 136.888 33.2898C137.013 33.4187 137.162 33.5214 137.328 33.5917C137.493 33.6621 137.672 33.6987 137.852 33.6992C138.032 33.6987 138.209 33.6621 138.375 33.5916C138.54 33.5212 138.688 33.4183 138.812 33.2892C138.936 33.1601 139.032 33.0076 139.094 32.8407C139.157 32.6739 139.184 32.4963 139.175 32.3186Z" fill="#115D36"/>
    <path d="M141.578 30.3792H142.309L143.505 32.2146L144.701 30.3792H145.432V34.2581H144.745V31.4749L143.505 33.3048L142.276 31.4859V34.2581H141.6L141.578 30.3792Z" fill="#115D36"/>
    <path d="M147.309 30.3792H150.514V34.2581H149.828V30.9709H148.006V34.2581H147.314L147.309 30.3792Z" fill="#115D36"/>
    <path d="M153.764 30.3518H154.39L156.112 34.2581H155.387L154.988 33.3212H153.133L152.729 34.2581H152.02L153.764 30.3518ZM154.75 32.7186L154.074 31.1681L153.399 32.7186H154.75Z" fill="#115D36"/>
    <path d="M157.662 30.3792H158.354V31.9899H160.226V30.3792H160.912V34.2581H160.226V32.6145H158.354V34.2581H157.662V30.3792Z" fill="#115D36"/>
    <path d="M162.789 30.3792H163.465V33.2117L165.452 30.3792H166.094V34.2581H165.419V31.4311L163.437 34.2581H162.789V30.3792Z" fill="#115D36"/>
    <path d="M168.73 32.8008C168.457 32.744 168.213 32.5935 168.042 32.3758C167.871 32.1582 167.783 31.8875 167.794 31.6119C167.794 30.8613 168.348 30.3792 169.256 30.3792H171V34.2581H170.313V32.9158H169.444L168.47 34.2581H167.678L168.73 32.8008ZM170.313 32.3241V30.9928H169.339C168.824 30.9928 168.514 31.2394 168.514 31.6612C168.514 32.0831 168.785 32.3187 169.3 32.3187L170.313 32.3241Z" fill="#115D36"/>
  </g>
  <defs>
    <linearGradient id="paint0_linear_44_4954" x1="4.16914" y1="23.3172" x2="41.8117" y2="6.6833" gradientUnits="userSpaceOnUse">
      <stop offset="0.12" stop-color="white"/>
      <stop offset="0.14" stop-color="white" stop-opacity="0.9"/>
      <stop offset="0.24" stop-color="white" stop-opacity="0.59"/>
      <stop offset="0.33" stop-color="white" stop-opacity="0.34"/>
      <stop offset="0.41" stop-color="white" stop-opacity="0.15"/>
      <stop offset="0.46" stop-color="white" stop-opacity="0.04"/>
      <stop offset="0.5" stop-color="white" stop-opacity="0"/>
      <stop offset="0.83" stop-color="white"/>
      <stop offset="0.84" stop-color="white" stop-opacity="0.9"/>
      <stop offset="0.88" stop-color="white" stop-opacity="0.59"/>
      <stop offset="0.93" stop-color="white" stop-opacity="0.34"/>
      <stop offset="0.96" stop-color="white" stop-opacity="0.15"/>
      <stop offset="0.99" stop-color="white" stop-opacity="0.04"/>
      <stop offset="1" stop-color="white" stop-opacity="0"/>
    </linearGradient>
    <linearGradient id="paint1_linear_44_4954" x1="15.9898" y1="18.8466" x2="16.5266" y2="29.2347" gradientUnits="userSpaceOnUse">
      <stop offset="0.12" stop-color="#12110B"/>
      <stop offset="0.15" stop-color="#1F1E19"/>
      <stop offset="0.39" stop-color="#6E6D69"/>
      <stop offset="0.61" stop-color="#ACACAA"/>
      <stop offset="0.79" stop-color="#D9D9D8"/>
      <stop offset="0.92" stop-color="#F5F5F4"/>
      <stop offset="1" stop-color="white"/>
    </linearGradient>
    <clipPath id="clip0_44_4954">
      <rect width="171" height="38" fill="white"/>
    </clipPath>
  </defs>
</svg>